<?xml version="1.0" encoding="iso-8859-1"?>
<!-- Generator: Adobe Illustrator 19.0.0, SVG Export Plug-In . SVG Version: 6.00 Build 0)  -->
<svg version="1.1" id="Layer_1" xmlns="http://www.w3.org/2000/svg" xmlns:xlink="http://www.w3.org/1999/xlink" x="0px" y="0px"
	 viewBox="0 0 512 512" style="enable-background:new 0 0 512 512;" xml:space="preserve">
<path style="fill:#3CC4DC;" d="M465.391,78.235c-7.712-1.701-14.709-5.747-20.293-11.332c-5.584-5.584-9.631-12.582-11.332-20.293
	c-4.718-21.394-24.182-37.254-47.19-36.375c-24.069,0.918-43.684,20.526-44.609,44.595c-0.915,23.805,16.09,43.806,38.603,47.625
	l-65.654,65.654l28.977,28.977l65.654-65.654c3.82,22.513,23.821,39.518,47.625,38.603c24.069-0.925,43.677-20.54,44.595-44.609
	C502.643,102.418,486.784,82.953,465.391,78.235z M388.892,71.15c-8.278,0-14.988-6.71-14.988-14.988s6.71-14.988,14.988-14.988
	c8.278,0,14.988,6.71,14.988,14.988S397.17,71.15,388.892,71.15z M455.838,138.095c-8.278,0-14.988-6.71-14.988-14.988
	s6.71-14.988,14.988-14.988s14.988,6.71,14.988,14.988S464.116,138.095,455.838,138.095z"/>
<path style="fill:#D5E2E8;" d="M360.91,214.104L147.576,427.439c-9.148,9.148-23.98,9.148-33.128,0l-29.887-29.886
	c-9.148-9.148-9.148-23.98,0-33.128L297.896,151.09L360.91,214.104z"/>
<path d="M388.892,30.975c-13.888,0-25.187,11.299-25.187,25.187s11.299,25.187,25.187,25.187c13.888,0,25.187-11.299,25.187-25.187
	S402.781,30.975,388.892,30.975z M388.892,60.951c-2.641,0-4.789-2.148-4.789-4.789c0-2.641,2.148-4.789,4.789-4.789
	s4.789,2.148,4.789,4.789C393.681,58.803,391.533,60.951,388.892,60.951z"/>
<path d="M455.838,97.921c-13.887,0-25.186,11.299-25.186,25.187s11.299,25.187,25.186,25.187c13.888,0,25.187-11.299,25.187-25.187
	C481.025,109.219,469.726,97.921,455.838,97.921z M455.838,127.896c-2.641,0-4.788-2.148-4.788-4.789
	c0-2.641,2.147-4.789,4.788-4.789s4.789,2.148,4.789,4.789C460.627,125.748,458.479,127.896,455.838,127.896z"/>
<path d="M467.587,68.275C467.586,68.275,467.586,68.275,467.587,68.275c-5.619-1.239-10.902-4.207-15.279-8.585
	c-4.376-4.376-7.344-9.66-8.583-15.278c-5.902-26.756-30.091-45.405-57.539-44.371c-29.382,1.121-53.282,25.014-54.413,54.395
	c-0.854,22.2,11.362,42.318,30.102,52.287l-14.949,14.949L310.674,85.42c-3.984-3.983-10.44-3.982-14.425,0
	c-3.983,3.983-3.983,10.441,0,14.425l36.253,36.253l-17.587,17.588l-9.807-9.807c-3.984-3.983-10.44-3.983-14.425,0L77.35,357.212
	c-13.11,13.11-13.11,34.443,0,47.553l7.731,7.731l-60.598,60.598c-3.983,3.983-3.983,10.441,0,14.425
	c1.992,1.992,4.602,2.987,7.212,2.987s5.22-0.995,7.212-2.987l60.597-60.596l7.731,7.731c6.556,6.555,15.166,9.832,23.776,9.832
	s17.221-3.277,23.777-9.832l213.335-213.334c1.912-1.912,2.987-4.507,2.987-7.212s-1.075-5.299-2.987-7.212l-9.808-9.807
	l17.587-17.588l36.253,36.253c1.992,1.992,4.602,2.987,7.212,2.987c2.61,0,5.22-0.996,7.212-2.987
	c3.983-3.983,3.983-10.441,0-14.425l-36.253-36.253l14.948-14.948c9.97,18.741,30.107,30.958,52.287,30.101
	c29.383-1.129,53.276-25.031,54.396-54.413C513.005,98.376,494.344,74.176,467.587,68.275z M140.363,420.226
	c-5.157,5.158-13.548,5.157-18.704,0l-29.886-29.887c-2.498-2.498-3.875-5.82-3.875-9.352c0-3.532,1.377-6.854,3.875-9.352
	l9.462-9.462l9.755,9.753c1.991,1.992,4.601,2.987,7.211,2.987c2.61,0,5.221-0.996,7.212-2.987
	c3.983-3.983,3.983-10.441-0.001-14.424l-9.754-9.753l16.045-16.045l23.742,23.742c1.992,1.992,4.602,2.987,7.212,2.987
	s5.22-0.995,7.212-2.987c3.983-3.983,3.983-10.441,0-14.425l-23.742-23.742l16.044-16.044l9.752,9.753
	c1.992,1.992,4.602,2.987,7.212,2.987s5.22-0.996,7.212-2.987c3.983-3.983,3.983-10.441,0-14.424l-9.753-9.753l16.044-16.044
	l23.742,23.742c1.992,1.992,4.602,2.987,7.212,2.987c2.61,0,5.22-0.995,7.212-2.987c3.983-3.983,3.983-10.441,0-14.425
	l-23.742-23.742l16.044-16.044l9.753,9.753c1.992,1.992,4.602,2.987,7.212,2.987c2.61,0,5.22-0.995,7.212-2.987
	c3.983-3.983,3.983-10.441,0-14.425l-9.754-9.753l60.362-60.362l9.802,9.802c0.002,0.002,0.003,0.004,0.005,0.005l28.977,28.977
	l9.807,9.807L140.363,420.226z M343.892,182.662l-14.553-14.553l17.587-17.588l14.552,14.552L343.892,182.662z M491.574,125.036
	c-0.716,18.795-16,34.083-34.795,34.806c-18.206,0.7-34.147-12.25-37.178-30.117c-0.638-3.761-3.323-6.852-6.957-8.01
	c-3.635-1.159-7.612-0.193-10.31,2.506l-26.429,26.43l-14.552-14.552l26.43-26.43c2.698-2.698,3.665-6.675,2.505-10.31
	c-1.16-3.634-4.25-6.318-8.01-6.957c-17.868-3.032-30.816-19.015-30.118-37.178c0.724-18.795,16.013-34.08,34.807-34.796
	c17.556-0.66,33.068,11.265,36.842,28.379c2.078,9.425,6.948,18.178,14.081,25.31c7.132,7.132,15.884,12.001,25.308,14.08h-0.001
	C480.309,91.969,492.244,107.464,491.574,125.036z"/>
<path d="M4.159,493.416l-1.172,1.172c-3.983,3.983-3.983,10.441,0,14.425C4.979,511.005,7.589,512,10.199,512
	s5.22-0.995,7.212-2.987l1.172-1.172c3.983-3.983,3.983-10.441,0-14.425C14.6,489.432,8.144,489.432,4.159,493.416z"/>
<g>
</g>
<g>
</g>
<g>
</g>
<g>
</g>
<g>
</g>
<g>
</g>
<g>
</g>
<g>
</g>
<g>
</g>
<g>
</g>
<g>
</g>
<g>
</g>
<g>
</g>
<g>
</g>
<g>
</g>
</svg>
